<?xml version="1.0" encoding="utf-8"?>
<!-- Generator: Adobe Illustrator 16.0.0, SVG Export Plug-In . SVG Version: 6.00 Build 0)  -->
<!DOCTYPE svg PUBLIC "-//W3C//DTD SVG 1.1//EN" "http://www.w3.org/Graphics/SVG/1.1/DTD/svg11.dtd">
<svg version="1.1" id="Layer_1" xmlns="http://www.w3.org/2000/svg" xmlns:xlink="http://www.w3.org/1999/xlink" x="0px" y="0px"
	 width="640px" height="303.055px" viewBox="0 0 640 303.055" enable-background="new 0 0 640 303.055" xml:space="preserve">
<g>
	<linearGradient id="SVGID_1_" gradientUnits="userSpaceOnUse" x1="97.1475" y1="288.5039" x2="97.1474" y2="-97.9927">
		<stop  offset="0" style="stop-color:#D8E028"/>
		<stop  offset="0.2434" style="stop-color:#BED634"/>
		<stop  offset="0.5377" style="stop-color:#A4CD3C"/>
		<stop  offset="0.7994" style="stop-color:#94C840"/>
		<stop  offset="1" style="stop-color:#8EC641"/>
	</linearGradient>
	<path fill="url(#SVGID_1_)" d="M0,216.041V103.865l97.147-56.089l97.148,56.089v112.176l-97.148,56.087L0,216.041z M19.997,115.41
		v89.085l77.149,44.544l77.151-44.544V115.41L97.146,70.867L19.997,115.41z"/>
</g>
<linearGradient id="SVGID_2_" gradientUnits="userSpaceOnUse" x1="97.0981" y1="288.5073" x2="97.0981" y2="-97.994">
	<stop  offset="0" style="stop-color:#D8E028"/>
	<stop  offset="0.2434" style="stop-color:#BED634"/>
	<stop  offset="0.5377" style="stop-color:#A4CD3C"/>
	<stop  offset="0.7994" style="stop-color:#94C840"/>
	<stop  offset="1" style="stop-color:#8EC641"/>
</linearGradient>
<polygon fill="url(#SVGID_2_)" points="149.494,30.132 97.304,0 97.098,0.119 96.892,0 44.703,30.132 44.703,53.223 97.098,23.209 
	149.494,53.223 "/>
<radialGradient id="SVGID_3_" cx="96.4375" cy="-1399.915" r="78.089" gradientTransform="matrix(1 0 0 0.1457 0 494.199)" gradientUnits="userSpaceOnUse">
	<stop  offset="0" style="stop-color:#000000"/>
	<stop  offset="0.1572" style="stop-color:#3D3D3D"/>
	<stop  offset="0.3248" style="stop-color:#787878"/>
	<stop  offset="0.487" style="stop-color:#A8A8A8"/>
	<stop  offset="0.6396" style="stop-color:#CECECE"/>
	<stop  offset="0.7803" style="stop-color:#E9E9E9"/>
	<stop  offset="0.9048" style="stop-color:#F9F9F9"/>
	<stop  offset="1" style="stop-color:#FFFFFF"/>
</radialGradient>
<ellipse opacity="0.23" fill="url(#SVGID_3_)" cx="97.403" cy="291.197" rx="78.086" ry="11.377"/>
<g>
	<g>
		<linearGradient id="SVGID_4_" gradientUnits="userSpaceOnUse" x1="319.8716" y1="288.9849" x2="319.8716" y2="-97.5126">
			<stop  offset="0" style="stop-color:#FBB041"/>
			<stop  offset="0.0221" style="stop-color:#FBAD41"/>
			<stop  offset="0.2552" style="stop-color:#F68B3E"/>
			<stop  offset="0.4766" style="stop-color:#F3703B"/>
			<stop  offset="0.6808" style="stop-color:#F15939"/>
			<stop  offset="0.8616" style="stop-color:#F04838"/>
			<stop  offset="1" style="stop-color:#EF4237"/>
		</linearGradient>
		<path fill="url(#SVGID_4_)" d="M222.724,216.521V104.345l97.149-56.089l97.147,56.089v112.177l-97.147,56.087L222.724,216.521z
			 M242.721,115.89v89.086l77.152,44.543l77.151-44.543V115.89l-77.151-44.543L242.721,115.89z"/>
	</g>
	<linearGradient id="SVGID_5_" gradientUnits="userSpaceOnUse" x1="320.0806" y1="288.9897" x2="320.0805" y2="-97.5151">
		<stop  offset="0" style="stop-color:#FBB041"/>
		<stop  offset="0.0221" style="stop-color:#FBAD41"/>
		<stop  offset="0.2552" style="stop-color:#F68B3E"/>
		<stop  offset="0.4766" style="stop-color:#F3703B"/>
		<stop  offset="0.6808" style="stop-color:#F15939"/>
		<stop  offset="0.8616" style="stop-color:#F04838"/>
		<stop  offset="1" style="stop-color:#EF4237"/>
	</linearGradient>
	<polygon fill="url(#SVGID_5_)" points="372.476,30.612 320.286,0.48 320.079,0.6 319.873,0.48 267.685,30.612 267.685,53.703 
		320.079,23.69 372.476,53.703 	"/>
</g>
<radialGradient id="SVGID_6_" cx="319.4175" cy="-1396.6182" r="78.089" gradientTransform="matrix(1 0 0 0.1457 0 494.199)" gradientUnits="userSpaceOnUse">
	<stop  offset="0" style="stop-color:#000000"/>
	<stop  offset="0.1572" style="stop-color:#3D3D3D"/>
	<stop  offset="0.3248" style="stop-color:#787878"/>
	<stop  offset="0.487" style="stop-color:#A8A8A8"/>
	<stop  offset="0.6396" style="stop-color:#CECECE"/>
	<stop  offset="0.7803" style="stop-color:#E9E9E9"/>
	<stop  offset="0.9048" style="stop-color:#F9F9F9"/>
	<stop  offset="1" style="stop-color:#FFFFFF"/>
</radialGradient>
<ellipse opacity="0.23" fill="url(#SVGID_6_)" cx="320.382" cy="291.676" rx="78.086" ry="11.379"/>
<g>
	<g>
		<linearGradient id="SVGID_7_" gradientUnits="userSpaceOnUse" x1="542.854" y1="288.9849" x2="542.854" y2="-97.5126">
			<stop  offset="0" style="stop-color:#29AAE1"/>
			<stop  offset="0.1491" style="stop-color:#50B0C0"/>
			<stop  offset="0.3183" style="stop-color:#67B59E"/>
			<stop  offset="0.4821" style="stop-color:#76BA81"/>
			<stop  offset="0.6361" style="stop-color:#81BE66"/>
			<stop  offset="0.7781" style="stop-color:#88C251"/>
			<stop  offset="0.9038" style="stop-color:#8DC545"/>
			<stop  offset="1" style="stop-color:#8EC641"/>
		</linearGradient>
		<path fill="url(#SVGID_7_)" d="M445.706,216.521V104.345l97.146-56.089l97.149,56.089v112.177l-97.149,56.087L445.706,216.521z
			 M465.703,115.89v89.086l77.149,44.543l77.151-44.543V115.89l-77.151-44.543L465.703,115.89z"/>
	</g>
	<linearGradient id="SVGID_8_" gradientUnits="userSpaceOnUse" x1="543.0601" y1="288.9897" x2="543.0601" y2="-97.5151">
		<stop  offset="0" style="stop-color:#29AAE1"/>
		<stop  offset="0.1491" style="stop-color:#50B0C0"/>
		<stop  offset="0.3183" style="stop-color:#67B59E"/>
		<stop  offset="0.4821" style="stop-color:#76BA81"/>
		<stop  offset="0.6361" style="stop-color:#81BE66"/>
		<stop  offset="0.7781" style="stop-color:#88C251"/>
		<stop  offset="0.9038" style="stop-color:#8DC545"/>
		<stop  offset="1" style="stop-color:#8EC641"/>
	</linearGradient>
	<polygon fill="url(#SVGID_8_)" points="595.456,30.612 543.265,0.48 543.058,0.6 542.852,0.48 490.665,30.612 490.665,53.703 
		543.058,23.69 595.456,53.703 	"/>
</g>
<radialGradient id="SVGID_9_" cx="542.3989" cy="-1396.6182" r="78.089" gradientTransform="matrix(1 0 0 0.1457 0 494.199)" gradientUnits="userSpaceOnUse">
	<stop  offset="0" style="stop-color:#000000"/>
	<stop  offset="0.1572" style="stop-color:#3D3D3D"/>
	<stop  offset="0.3248" style="stop-color:#787878"/>
	<stop  offset="0.487" style="stop-color:#A8A8A8"/>
	<stop  offset="0.6396" style="stop-color:#CECECE"/>
	<stop  offset="0.7803" style="stop-color:#E9E9E9"/>
	<stop  offset="0.9048" style="stop-color:#F9F9F9"/>
	<stop  offset="1" style="stop-color:#FFFFFF"/>
</radialGradient>
<ellipse opacity="0.23" fill="url(#SVGID_9_)" cx="543.364" cy="291.676" rx="78.086" ry="11.379"/>
<g>
	<g>
		<path fill="#666666" d="M75.361,137.45c-0.15,0-0.252-0.068-0.307-0.204l-2.39-5.087h-1.859c-0.082,0-0.123,0.041-0.123,0.123
			v4.964c0,0.136-0.068,0.204-0.205,0.204h-2.594c-0.136,0-0.204-0.068-0.204-0.204v-13.483c0-0.136,0.068-0.205,0.204-0.205h5.536
			c0.708,0,1.352,0.106,1.931,0.317c0.579,0.211,1.076,0.507,1.491,0.889s0.736,0.837,0.96,1.369s0.337,1.11,0.337,1.737
			c0,0.898-0.218,1.682-0.654,2.349c-0.436,0.667-1.042,1.171-1.818,1.512l2.737,5.475c0.027,0.068,0.027,0.126,0,0.174
			s-0.075,0.071-0.143,0.071H75.361z M73.257,129.605c0.572,0,1.028-0.156,1.369-0.47c0.34-0.313,0.511-0.736,0.511-1.267
			c0-0.518-0.17-0.933-0.511-1.247c-0.341-0.313-0.797-0.47-1.369-0.47h-2.452c-0.082,0-0.123,0.041-0.123,0.123v3.208
			c0,0.082,0.041,0.123,0.123,0.123H73.257z"/>
		<path fill="#666666" d="M85.432,137.675c-1.212,0-2.271-0.279-3.177-0.837s-1.536-1.403-1.89-2.533
			c-0.082-0.245-0.146-0.483-0.194-0.715c-0.048-0.231-0.085-0.49-0.112-0.776c-0.027-0.286-0.048-0.613-0.062-0.981
			s-0.021-0.81-0.021-1.328s0.007-0.96,0.021-1.328s0.034-0.694,0.062-0.98c0.027-0.286,0.064-0.544,0.112-0.776
			c0.047-0.231,0.112-0.47,0.194-0.715c0.354-1.117,0.984-1.958,1.89-2.523c0.906-0.565,1.965-0.848,3.177-0.848
			c1.212,0,2.271,0.283,3.177,0.848c0.906,0.565,1.536,1.406,1.89,2.523c0.082,0.245,0.146,0.483,0.194,0.715
			c0.047,0.232,0.085,0.49,0.112,0.776s0.047,0.613,0.062,0.98c0.013,0.368,0.02,0.811,0.02,1.328s-0.007,0.96-0.02,1.328
			c-0.014,0.368-0.034,0.695-0.062,0.981c-0.027,0.286-0.065,0.544-0.112,0.776c-0.048,0.232-0.112,0.47-0.194,0.715
			c-0.354,1.13-0.984,1.975-1.89,2.533S86.645,137.675,85.432,137.675z M85.432,135.019c0.572,0,1.042-0.136,1.41-0.409
			c0.368-0.272,0.626-0.646,0.776-1.124c0.041-0.123,0.075-0.262,0.102-0.418s0.051-0.348,0.072-0.572s0.034-0.5,0.041-0.827
			c0.006-0.327,0.01-0.715,0.01-1.165c0-0.45-0.003-0.838-0.01-1.165c-0.007-0.327-0.021-0.603-0.041-0.828
			c-0.021-0.225-0.044-0.415-0.072-0.572c-0.027-0.156-0.061-0.296-0.102-0.419c-0.15-0.477-0.409-0.851-0.776-1.124
			s-0.837-0.409-1.41-0.409c-0.572,0-1.042,0.136-1.409,0.409c-0.368,0.272-0.627,0.647-0.776,1.124
			c-0.041,0.123-0.075,0.263-0.103,0.419c-0.027,0.157-0.051,0.347-0.071,0.572c-0.021,0.225-0.034,0.5-0.041,0.828
			c-0.007,0.327-0.01,0.715-0.01,1.165c0,0.449,0.003,0.837,0.01,1.165c0.007,0.327,0.021,0.603,0.041,0.827
			s0.044,0.416,0.071,0.572s0.062,0.296,0.103,0.418c0.149,0.477,0.408,0.852,0.776,1.124
			C84.391,134.883,84.86,135.019,85.432,135.019z"/>
		<path fill="#666666" d="M98.445,137.675c-0.776,0-1.491-0.116-2.145-0.347s-1.216-0.572-1.686-1.021s-0.837-1.008-1.103-1.675
			c-0.266-0.667-0.398-1.43-0.398-2.288v-8.58c0-0.136,0.068-0.205,0.204-0.205h2.595c0.136,0,0.204,0.068,0.204,0.205v8.662
			c0,0.831,0.211,1.471,0.633,1.92c0.422,0.45,0.987,0.674,1.696,0.674c0.695,0,1.253-0.225,1.675-0.674
			c0.422-0.449,0.633-1.089,0.633-1.92v-8.662c0-0.136,0.068-0.205,0.204-0.205h2.595c0.136,0,0.204,0.068,0.204,0.205v8.58
			c0,0.858-0.133,1.621-0.398,2.288c-0.266,0.667-0.633,1.226-1.103,1.675s-1.028,0.79-1.675,1.021S99.222,137.675,98.445,137.675z"
			/>
		<path fill="#666666" d="M109.416,137.45c-0.136,0-0.204-0.068-0.204-0.204v-10.889c0-0.082-0.041-0.123-0.123-0.123h-3.514
			c-0.136,0-0.205-0.068-0.205-0.204v-2.268c0-0.136,0.068-0.205,0.205-0.205h10.276c0.136,0,0.204,0.068,0.204,0.205v2.268
			c0,0.136-0.068,0.204-0.204,0.204h-3.514c-0.082,0-0.123,0.041-0.123,0.123v10.889c0,0.136-0.068,0.204-0.204,0.204H109.416z"/>
		<path fill="#666666" d="M117.73,123.763c0-0.136,0.068-0.205,0.204-0.205h8.907c0.136,0,0.204,0.068,0.204,0.205v2.186
			c0,0.136-0.068,0.204-0.204,0.204h-5.986c-0.082,0-0.123,0.041-0.123,0.123v2.758c0,0.082,0.041,0.123,0.123,0.123h4.985
			c0.136,0,0.204,0.068,0.204,0.205v2.166c0,0.136-0.068,0.204-0.204,0.204h-4.985c-0.082,0-0.123,0.041-0.123,0.123v2.88
			c0,0.082,0.041,0.123,0.123,0.123h5.986c0.136,0,0.204,0.068,0.204,0.205v2.186c0,0.136-0.068,0.204-0.204,0.204h-8.907
			c-0.136,0-0.204-0.068-0.204-0.204V123.763z"/>
		<path fill="#666666" d="M92.796,162.19c-1.049,0-1.954-0.238-2.717-0.715c-0.763-0.477-1.287-1.165-1.573-2.063
			c-0.109-0.354-0.191-0.718-0.245-1.093c-0.055-0.375-0.082-0.807-0.082-1.297s0.027-0.922,0.082-1.297
			c0.054-0.375,0.136-0.739,0.245-1.093c0.286-0.899,0.81-1.586,1.573-2.063c0.763-0.477,1.668-0.715,2.717-0.715
			s1.954,0.238,2.717,0.715c0.763,0.477,1.287,1.165,1.573,2.063c0.108,0.354,0.19,0.718,0.245,1.093
			c0.054,0.375,0.082,0.807,0.082,1.297s-0.027,0.923-0.082,1.297c-0.055,0.375-0.137,0.739-0.245,1.093
			c-0.286,0.899-0.811,1.587-1.573,2.063C94.75,161.952,93.845,162.19,92.796,162.19z M92.796,159.779
			c0.79,0,1.301-0.354,1.532-1.062c0.068-0.231,0.116-0.467,0.143-0.705s0.041-0.568,0.041-0.991c0-0.422-0.014-0.752-0.041-0.991
			s-0.075-0.473-0.143-0.705c-0.231-0.708-0.742-1.062-1.532-1.062s-1.301,0.354-1.532,1.062c-0.068,0.232-0.116,0.467-0.143,0.705
			c-0.028,0.238-0.041,0.569-0.041,0.991c0,0.422,0.013,0.752,0.041,0.991c0.027,0.238,0.075,0.474,0.143,0.705
			C91.496,159.425,92.006,159.779,92.796,159.779z"/>
		<path fill="#666666" d="M99.702,161.965c-0.136,0-0.204-0.068-0.204-0.204v-9.479c0-0.136,0.068-0.204,0.204-0.204h2.452
			c0.136,0,0.204,0.068,0.204,0.204v0.838h0.021c0.231-0.395,0.565-0.705,1.001-0.93s0.96-0.337,1.573-0.337
			c0.327,0,0.644,0.051,0.95,0.153c0.307,0.103,0.569,0.249,0.787,0.439c0.095,0.082,0.116,0.177,0.062,0.286l-1.144,2.083
			c-0.068,0.082-0.164,0.096-0.286,0.041c-0.49-0.313-0.967-0.463-1.43-0.449c-0.531,0.027-0.919,0.225-1.165,0.592
			s-0.368,0.885-0.368,1.553v5.209c0,0.136-0.068,0.204-0.204,0.204H99.702z"/>
		<path fill="#666666" d="M31.908,186.48c-0.136,0-0.204-0.068-0.204-0.204v-13.483c0-0.136,0.068-0.205,0.204-0.205h5.393
			c0.749,0,1.423,0.109,2.022,0.327c0.6,0.218,1.11,0.524,1.532,0.919c0.422,0.395,0.742,0.865,0.96,1.41
			c0.218,0.544,0.327,1.151,0.327,1.818c0,0.654-0.112,1.253-0.337,1.798c-0.225,0.545-0.545,1.015-0.96,1.41
			s-0.922,0.702-1.522,0.919c-0.599,0.218-1.273,0.327-2.022,0.327H34.83c-0.082,0-0.123,0.041-0.123,0.123v4.638
			c0,0.136-0.068,0.204-0.205,0.204H31.908z M37.118,178.922c0.64,0,1.137-0.167,1.491-0.5c0.354-0.334,0.531-0.787,0.531-1.359
			c0-0.572-0.177-1.028-0.531-1.369c-0.354-0.34-0.851-0.511-1.491-0.511H34.83c-0.082,0-0.123,0.041-0.123,0.123v3.494
			c0,0.082,0.041,0.123,0.123,0.123H37.118z"/>
		<path fill="#666666" d="M41.142,184.928c-0.068-0.109-0.062-0.204,0.02-0.286l1.9-1.45c0.095-0.068,0.191-0.054,0.286,0.041
			c0.177,0.204,0.412,0.392,0.705,0.562c0.292,0.17,0.623,0.255,0.991,0.255c0.654,0,1.157-0.204,1.512-0.613
			c0.354-0.409,0.531-1.008,0.531-1.798v-8.846c0-0.136,0.068-0.205,0.204-0.205h2.595c0.136,0,0.204,0.068,0.204,0.205v8.703
			c0,1.716-0.446,3.014-1.338,3.892c-0.893,0.878-2.135,1.317-3.729,1.317c-0.858,0-1.638-0.167-2.339-0.5
			C41.983,185.871,41.469,185.446,41.142,184.928z"/>
		<path fill="#666666" d="M52.889,186.48c-0.136,0-0.204-0.068-0.204-0.204v-13.483c0-0.136,0.068-0.205,0.204-0.205h5.393
			c0.749,0,1.423,0.109,2.022,0.327c0.6,0.218,1.11,0.524,1.532,0.919c0.422,0.395,0.742,0.865,0.96,1.41
			c0.218,0.544,0.327,1.151,0.327,1.818c0,0.654-0.112,1.253-0.337,1.798c-0.225,0.545-0.545,1.015-0.96,1.41
			s-0.922,0.702-1.522,0.919c-0.599,0.218-1.273,0.327-2.022,0.327H55.81c-0.082,0-0.123,0.041-0.123,0.123v4.638
			c0,0.136-0.068,0.204-0.205,0.204H52.889z M58.098,178.922c0.64,0,1.137-0.167,1.491-0.5c0.354-0.334,0.531-0.787,0.531-1.359
			c0-0.572-0.177-1.028-0.531-1.369c-0.354-0.34-0.851-0.511-1.491-0.511H55.81c-0.082,0-0.123,0.041-0.123,0.123v3.494
			c0,0.082,0.041,0.123,0.123,0.123H58.098z"/>
		<path fill="#666666" d="M70.069,186.48c-0.136,0-0.204-0.068-0.204-0.204v-13.483c0-0.136,0.068-0.205,0.204-0.205h5.393
			c0.749,0,1.423,0.109,2.022,0.327c0.6,0.218,1.11,0.524,1.532,0.919c0.422,0.395,0.742,0.865,0.96,1.41
			c0.218,0.544,0.327,1.151,0.327,1.818c0,0.654-0.112,1.253-0.337,1.798c-0.225,0.545-0.545,1.015-0.96,1.41
			s-0.922,0.702-1.522,0.919c-0.599,0.218-1.273,0.327-2.022,0.327h-2.472c-0.082,0-0.123,0.041-0.123,0.123v4.638
			c0,0.136-0.068,0.204-0.205,0.204H70.069z M75.279,178.922c0.64,0,1.137-0.167,1.491-0.5c0.354-0.334,0.531-0.787,0.531-1.359
			c0-0.572-0.177-1.028-0.531-1.369c-0.354-0.34-0.851-0.511-1.491-0.511h-2.288c-0.082,0-0.123,0.041-0.123,0.123v3.494
			c0,0.082,0.041,0.123,0.123,0.123H75.279z"/>
		<path fill="#666666" d="M82.225,172.793c0-0.136,0.068-0.205,0.204-0.205h2.594c0.136,0,0.205,0.068,0.205,0.205v10.889
			c0,0.082,0.041,0.123,0.123,0.123h6.129c0.136,0,0.204,0.068,0.204,0.204v2.268c0,0.136-0.068,0.204-0.204,0.204h-9.05
			c-0.136,0-0.204-0.068-0.204-0.204V172.793z"/>
		<path fill="#666666" d="M97.199,172.793c0.041-0.136,0.129-0.205,0.266-0.205h2.574c0.136,0,0.225,0.068,0.266,0.205l4.699,13.483
			c0.041,0.136-0.007,0.204-0.143,0.204h-2.656c-0.137,0-0.225-0.068-0.266-0.204l-0.797-2.431H96.28l-0.776,2.431
			c-0.041,0.136-0.129,0.204-0.265,0.204h-2.676c-0.137,0-0.184-0.068-0.143-0.204L97.199,172.793z M100.325,181.292l-1.573-4.862
			H98.69l-1.573,4.862H100.325z"/>
		<path fill="#666666" d="M106.617,172.793c0-0.136,0.068-0.205,0.204-0.205h2.452c0.149,0,0.266,0.068,0.347,0.205l4.903,8.744
			h0.102v-8.744c0-0.136,0.068-0.205,0.205-0.205h2.309c0.136,0,0.204,0.068,0.204,0.205v13.483c0,0.136-0.068,0.204-0.204,0.204
			h-2.431c-0.15,0-0.266-0.068-0.347-0.204l-4.924-8.724h-0.102v8.724c0,0.136-0.068,0.204-0.204,0.204h-2.309
			c-0.136,0-0.204-0.068-0.204-0.204V172.793z"/>
		<path fill="#666666" d="M119.998,172.793c0-0.136,0.068-0.205,0.204-0.205h2.452c0.149,0,0.266,0.068,0.347,0.205l4.903,8.744
			h0.102v-8.744c0-0.136,0.068-0.205,0.205-0.205h2.309c0.136,0,0.204,0.068,0.204,0.205v13.483c0,0.136-0.068,0.204-0.204,0.204
			h-2.431c-0.15,0-0.266-0.068-0.347-0.204l-4.924-8.724h-0.102v8.724c0,0.136-0.068,0.204-0.204,0.204h-2.309
			c-0.136,0-0.204-0.068-0.204-0.204V172.793z"/>
		<path fill="#666666" d="M133.379,172.793c0-0.136,0.068-0.205,0.204-0.205h2.594c0.136,0,0.205,0.068,0.205,0.205v13.483
			c0,0.136-0.068,0.204-0.205,0.204h-2.594c-0.136,0-0.204-0.068-0.204-0.204V172.793z"/>
		<path fill="#666666" d="M139.038,172.793c0-0.136,0.068-0.205,0.204-0.205h2.452c0.149,0,0.266,0.068,0.347,0.205l4.903,8.744
			h0.102v-8.744c0-0.136,0.068-0.205,0.205-0.205h2.309c0.136,0,0.204,0.068,0.204,0.205v13.483c0,0.136-0.068,0.204-0.204,0.204
			h-2.431c-0.15,0-0.266-0.068-0.347-0.204l-4.924-8.724h-0.102v8.724c0,0.136-0.068,0.204-0.204,0.204h-2.309
			c-0.136,0-0.204-0.068-0.204-0.204V172.793z"/>
		<path fill="#666666" d="M152.439,183.334c-0.082-0.245-0.146-0.483-0.194-0.715c-0.048-0.231-0.085-0.49-0.112-0.776
			c-0.027-0.286-0.048-0.613-0.062-0.981s-0.021-0.81-0.021-1.328s0.007-0.96,0.021-1.328s0.034-0.694,0.062-0.98
			c0.027-0.286,0.064-0.544,0.112-0.776c0.047-0.231,0.112-0.47,0.194-0.715c0.354-1.13,0.984-1.975,1.89-2.533
			s1.979-0.838,3.218-0.838c0.654,0,1.246,0.075,1.777,0.225c0.531,0.15,1.004,0.358,1.42,0.624
			c0.415,0.265,0.769,0.579,1.063,0.939c0.292,0.361,0.521,0.753,0.684,1.175c0.068,0.136,0.041,0.238-0.082,0.307l-2.186,0.919
			c-0.15,0.041-0.245,0.007-0.286-0.102c-0.272-0.477-0.596-0.834-0.97-1.072c-0.375-0.238-0.848-0.358-1.42-0.358
			c-0.6,0-1.083,0.14-1.45,0.419c-0.368,0.279-0.627,0.657-0.776,1.134c-0.041,0.123-0.075,0.262-0.103,0.419
			s-0.051,0.347-0.071,0.572c-0.021,0.225-0.034,0.498-0.041,0.817c-0.007,0.32-0.01,0.705-0.01,1.154
			c0,0.449,0.003,0.837,0.01,1.165c0.007,0.327,0.021,0.603,0.041,0.827s0.044,0.416,0.071,0.572s0.062,0.296,0.103,0.418
			c0.149,0.477,0.412,0.852,0.786,1.124c0.375,0.273,0.869,0.409,1.481,0.409c0.517,0,0.98-0.123,1.389-0.368
			s0.688-0.599,0.837-1.063c0.054-0.177,0.095-0.374,0.123-0.592c0.027-0.218,0.041-0.477,0.041-0.776
			c0-0.082-0.041-0.123-0.123-0.123h-1.879c-0.136,0-0.205-0.068-0.205-0.204v-1.961c0-0.136,0.068-0.204,0.205-0.204h4.78
			c0.136,0,0.204,0.068,0.204,0.204v1.144c0,0.613-0.027,1.192-0.082,1.737c-0.055,0.544-0.143,1.008-0.266,1.389
			c-0.354,1.117-0.978,1.975-1.869,2.574c-0.892,0.6-1.958,0.899-3.197,0.899s-2.312-0.279-3.218-0.837
			S152.793,184.465,152.439,183.334z"/>
	</g>
</g>
<g>
	<g>
		<path fill="#666666" d="M288.442,137.674c-0.545,0-1.079-0.051-1.604-0.153c-0.524-0.102-1.019-0.238-1.481-0.408
			s-0.889-0.371-1.276-0.603c-0.388-0.231-0.719-0.477-0.991-0.735c-0.108-0.109-0.115-0.225-0.02-0.347l1.552-1.777
			c0.082-0.109,0.185-0.116,0.307-0.021c0.463,0.368,1.001,0.698,1.614,0.991c0.612,0.293,1.287,0.439,2.022,0.439
			s1.297-0.153,1.686-0.46c0.388-0.306,0.582-0.705,0.582-1.195c0-0.409-0.15-0.742-0.449-1.001c-0.3-0.259-0.865-0.442-1.696-0.552
			l-0.735-0.102c-1.416-0.19-2.502-0.623-3.258-1.297s-1.134-1.631-1.134-2.87c0-0.64,0.115-1.222,0.347-1.747
			s0.562-0.971,0.991-1.338c0.429-0.368,0.946-0.654,1.553-0.858c0.605-0.205,1.283-0.307,2.032-0.307
			c0.926,0,1.798,0.13,2.615,0.388c0.817,0.259,1.519,0.613,2.104,1.063c0.122,0.082,0.136,0.184,0.04,0.306l-1.246,1.859
			c-0.081,0.109-0.177,0.129-0.286,0.061c-0.53-0.354-1.059-0.62-1.583-0.796c-0.524-0.177-1.072-0.266-1.645-0.266
			c-0.612,0-1.076,0.143-1.389,0.429c-0.313,0.286-0.471,0.647-0.471,1.083c0,0.395,0.16,0.722,0.48,0.98s0.882,0.443,1.686,0.552
			l0.735,0.102c1.443,0.191,2.533,0.623,3.269,1.297c0.735,0.674,1.104,1.645,1.104,2.911c0,0.626-0.116,1.208-0.348,1.747
			s-0.575,1.001-1.031,1.389c-0.457,0.388-1.025,0.691-1.706,0.909C290.13,137.565,289.341,137.674,288.442,137.674z"/>
		<path fill="#666666" d="M299.515,123.762c0.041-0.136,0.129-0.205,0.266-0.205h2.574c0.136,0,0.225,0.068,0.266,0.205
			l4.698,13.483c0.041,0.136-0.007,0.204-0.143,0.204h-2.656c-0.136,0-0.225-0.068-0.266-0.204l-0.797-2.431h-4.861l-0.776,2.431
			c-0.041,0.136-0.13,0.204-0.266,0.204h-2.677c-0.136,0-0.184-0.068-0.143-0.204L299.515,123.762z M302.641,132.261l-1.573-4.862
			h-0.062l-1.573,4.862H302.641z"/>
		<path fill="#666666" d="M308.933,123.762c0-0.136,0.067-0.205,0.204-0.205h2.431c0.164,0,0.272,0.068,0.327,0.205l3.514,7.926
			h0.082l3.452-7.926c0.055-0.136,0.164-0.205,0.327-0.205h2.391c0.136,0,0.204,0.068,0.204,0.205v13.483
			c0,0.136-0.068,0.204-0.204,0.204h-2.309c-0.137,0-0.204-0.068-0.204-0.204v-7.825h-0.082l-2.574,5.863
			c-0.082,0.177-0.211,0.266-0.388,0.266h-1.41c-0.177,0-0.307-0.088-0.388-0.266l-2.574-5.863h-0.082v7.825
			c0,0.136-0.068,0.204-0.204,0.204h-2.309c-0.137,0-0.204-0.068-0.204-0.204V123.762z"/>
		<path fill="#666666" d="M324.724,137.45c-0.137,0-0.204-0.068-0.204-0.204v-13.483c0-0.136,0.067-0.205,0.204-0.205h5.394
			c0.749,0,1.423,0.109,2.022,0.327c0.599,0.218,1.109,0.524,1.532,0.919c0.422,0.395,0.742,0.865,0.96,1.41
			c0.218,0.544,0.327,1.151,0.327,1.818c0,0.654-0.112,1.253-0.338,1.798c-0.225,0.545-0.545,1.015-0.96,1.41
			s-0.923,0.702-1.521,0.919c-0.6,0.218-1.273,0.327-2.022,0.327h-2.473c-0.081,0-0.122,0.041-0.122,0.123v4.638
			c0,0.136-0.068,0.204-0.204,0.204H324.724z M329.933,129.891c0.641,0,1.138-0.167,1.492-0.5c0.354-0.334,0.53-0.787,0.53-1.359
			c0-0.572-0.177-1.028-0.53-1.369c-0.354-0.34-0.852-0.511-1.492-0.511h-2.288c-0.081,0-0.122,0.041-0.122,0.123v3.494
			c0,0.082,0.041,0.123,0.122,0.123H329.933z"/>
		<path fill="#666666" d="M336.879,123.762c0-0.136,0.067-0.205,0.204-0.205h2.595c0.136,0,0.204,0.068,0.204,0.205v10.889
			c0,0.082,0.041,0.123,0.122,0.123h6.129c0.137,0,0.204,0.068,0.204,0.204v2.268c0,0.136-0.067,0.204-0.204,0.204h-9.05
			c-0.137,0-0.204-0.068-0.204-0.204V123.762z"/>
		<path fill="#666666" d="M348.116,123.762c0-0.136,0.067-0.205,0.204-0.205h8.907c0.136,0,0.204,0.068,0.204,0.205v2.186
			c0,0.136-0.068,0.204-0.204,0.204h-5.986c-0.081,0-0.122,0.041-0.122,0.123v2.758c0,0.082,0.041,0.123,0.122,0.123h4.985
			c0.136,0,0.204,0.068,0.204,0.205v2.166c0,0.136-0.068,0.204-0.204,0.204h-4.985c-0.081,0-0.122,0.041-0.122,0.123v2.88
			c0,0.082,0.041,0.123,0.122,0.123h5.986c0.136,0,0.204,0.068,0.204,0.205v2.186c0,0.136-0.068,0.204-0.204,0.204h-8.907
			c-0.137,0-0.204-0.068-0.204-0.204V123.762z"/>
		<path fill="#666666" d="M316.032,162.189c-1.049,0-1.955-0.238-2.718-0.715c-0.763-0.477-1.287-1.165-1.572-2.063
			c-0.109-0.354-0.191-0.718-0.245-1.093c-0.055-0.375-0.082-0.807-0.082-1.297s0.027-0.922,0.082-1.297
			c0.054-0.375,0.136-0.739,0.245-1.093c0.285-0.899,0.81-1.586,1.572-2.063c0.763-0.477,1.669-0.715,2.718-0.715
			c1.048,0,1.954,0.238,2.717,0.715c0.763,0.477,1.287,1.165,1.573,2.063c0.108,0.354,0.19,0.718,0.245,1.093
			c0.054,0.375,0.081,0.807,0.081,1.297s-0.027,0.923-0.081,1.297c-0.055,0.375-0.137,0.739-0.245,1.093
			c-0.286,0.899-0.811,1.587-1.573,2.063C317.986,161.952,317.08,162.189,316.032,162.189z M316.032,159.779
			c0.789,0,1.3-0.354,1.532-1.062c0.067-0.231,0.115-0.467,0.143-0.705s0.041-0.568,0.041-0.991c0-0.422-0.014-0.752-0.041-0.991
			s-0.075-0.473-0.143-0.705c-0.232-0.708-0.743-1.062-1.532-1.062c-0.79,0-1.301,0.354-1.532,1.062
			c-0.068,0.232-0.116,0.467-0.144,0.705s-0.041,0.569-0.041,0.991c0,0.422,0.014,0.752,0.041,0.991s0.075,0.474,0.144,0.705
			C314.731,159.425,315.242,159.779,316.032,159.779z"/>
		<path fill="#666666" d="M322.936,161.965c-0.136,0-0.204-0.068-0.204-0.204v-9.479c0-0.136,0.068-0.204,0.204-0.204h2.451
			c0.137,0,0.205,0.068,0.205,0.204v0.838h0.021c0.231-0.395,0.564-0.705,1.001-0.93c0.436-0.225,0.96-0.337,1.572-0.337
			c0.327,0,0.644,0.051,0.95,0.153c0.307,0.103,0.568,0.249,0.787,0.439c0.095,0.082,0.115,0.177,0.061,0.286l-1.144,2.083
			c-0.068,0.082-0.164,0.096-0.286,0.041c-0.49-0.313-0.967-0.463-1.43-0.449c-0.531,0.027-0.92,0.225-1.165,0.592
			s-0.367,0.885-0.367,1.553v5.209c0,0.136-0.068,0.204-0.205,0.204H322.936z"/>
		<path fill="#666666" d="M254.101,186.48c-0.136,0-0.204-0.068-0.204-0.204v-13.483c0-0.136,0.068-0.205,0.204-0.205h5.393
			c0.749,0,1.423,0.109,2.022,0.327s1.109,0.524,1.533,0.919c0.422,0.395,0.742,0.865,0.959,1.41
			c0.219,0.544,0.328,1.151,0.328,1.818c0,0.654-0.113,1.253-0.338,1.798c-0.225,0.545-0.545,1.015-0.961,1.41
			c-0.414,0.395-0.922,0.702-1.521,0.919s-1.273,0.327-2.022,0.327h-2.472c-0.082,0-0.123,0.041-0.123,0.123v4.638
			c0,0.136-0.068,0.204-0.204,0.204H254.101z M259.31,178.921c0.64,0,1.137-0.167,1.491-0.5c0.354-0.334,0.531-0.787,0.531-1.359
			c0-0.572-0.178-1.028-0.531-1.369c-0.354-0.34-0.852-0.511-1.491-0.511h-2.288c-0.082,0-0.123,0.041-0.123,0.123v3.494
			c0,0.082,0.041,0.123,0.123,0.123H259.31z"/>
		<path fill="#666666" d="M271.343,186.705c-1.213,0-2.271-0.279-3.177-0.837c-0.906-0.559-1.536-1.403-1.89-2.533
			c-0.082-0.245-0.146-0.483-0.194-0.715c-0.048-0.231-0.085-0.49-0.112-0.776c-0.027-0.286-0.048-0.613-0.062-0.981
			s-0.021-0.81-0.021-1.328s0.007-0.96,0.021-1.328s0.034-0.694,0.062-0.98s0.064-0.544,0.112-0.776
			c0.048-0.231,0.112-0.47,0.194-0.715c0.354-1.117,0.983-1.958,1.89-2.523c0.905-0.565,1.964-0.848,3.177-0.848
			c1.212,0,2.271,0.283,3.177,0.848c0.905,0.565,1.535,1.406,1.89,2.523c0.081,0.245,0.146,0.483,0.193,0.715
			c0.048,0.232,0.085,0.49,0.113,0.776c0.026,0.286,0.047,0.613,0.061,0.98s0.021,0.811,0.021,1.328s-0.007,0.96-0.021,1.328
			s-0.034,0.695-0.061,0.981c-0.028,0.286-0.065,0.544-0.113,0.776c-0.048,0.232-0.112,0.47-0.193,0.715
			c-0.354,1.13-0.984,1.975-1.89,2.533C273.614,186.426,272.555,186.705,271.343,186.705z M271.343,184.049
			c0.571,0,1.042-0.136,1.409-0.409c0.368-0.272,0.626-0.646,0.776-1.124c0.041-0.123,0.075-0.262,0.103-0.418
			c0.026-0.157,0.051-0.348,0.071-0.572s0.034-0.5,0.041-0.827c0.007-0.327,0.01-0.715,0.01-1.165c0-0.45-0.003-0.838-0.01-1.165
			c-0.007-0.327-0.021-0.603-0.041-0.828c-0.021-0.225-0.045-0.415-0.071-0.572c-0.027-0.156-0.062-0.296-0.103-0.419
			c-0.15-0.477-0.408-0.851-0.776-1.124c-0.367-0.272-0.838-0.409-1.409-0.409c-0.572,0-1.042,0.136-1.41,0.409
			c-0.367,0.272-0.626,0.647-0.776,1.124c-0.041,0.123-0.074,0.263-0.102,0.419c-0.027,0.157-0.052,0.347-0.071,0.572
			c-0.021,0.225-0.034,0.5-0.041,0.828c-0.008,0.327-0.011,0.715-0.011,1.165c0,0.449,0.003,0.837,0.011,1.165
			c0.007,0.327,0.021,0.603,0.041,0.827c0.02,0.225,0.044,0.416,0.071,0.572s0.061,0.296,0.102,0.418
			c0.15,0.477,0.409,0.852,0.776,1.124C270.301,183.913,270.771,184.049,271.343,184.049z"/>
		<path fill="#666666" d="M279.29,186.48c-0.137,0-0.204-0.068-0.204-0.204v-13.483c0-0.136,0.067-0.205,0.204-0.205h5.394
			c0.749,0,1.423,0.109,2.022,0.327c0.599,0.218,1.109,0.524,1.532,0.919c0.422,0.395,0.742,0.865,0.96,1.41
			c0.218,0.544,0.327,1.151,0.327,1.818c0,0.654-0.112,1.253-0.338,1.798c-0.225,0.545-0.545,1.015-0.96,1.41
			s-0.923,0.702-1.521,0.919c-0.6,0.218-1.273,0.327-2.022,0.327h-2.473c-0.081,0-0.122,0.041-0.122,0.123v4.638
			c0,0.136-0.068,0.204-0.204,0.204H279.29z M284.499,178.921c0.641,0,1.138-0.167,1.492-0.5c0.354-0.334,0.53-0.787,0.53-1.359
			c0-0.572-0.177-1.028-0.53-1.369c-0.354-0.34-0.852-0.511-1.492-0.511h-2.288c-0.081,0-0.122,0.041-0.122,0.123v3.494
			c0,0.082,0.041,0.123,0.122,0.123H284.499z"/>
		<path fill="#666666" d="M299.106,186.48c-0.137,0-0.205-0.068-0.205-0.204v-10.889c0-0.082-0.04-0.123-0.122-0.123h-3.514
			c-0.137,0-0.204-0.068-0.204-0.204v-2.268c0-0.136,0.067-0.205,0.204-0.205h10.275c0.137,0,0.205,0.068,0.205,0.205v2.268
			c0,0.136-0.068,0.204-0.205,0.204h-3.514c-0.082,0-0.122,0.041-0.122,0.123v10.889c0,0.136-0.068,0.204-0.205,0.204H299.106z"/>
		<path fill="#666666" d="M315.101,186.48c-0.149,0-0.252-0.068-0.306-0.204l-2.391-5.087h-1.859c-0.081,0-0.122,0.041-0.122,0.123
			v4.964c0,0.136-0.068,0.204-0.204,0.204h-2.595c-0.137,0-0.204-0.068-0.204-0.204v-13.483c0-0.136,0.067-0.205,0.204-0.205h5.536
			c0.708,0,1.352,0.106,1.931,0.317c0.579,0.211,1.076,0.507,1.491,0.889s0.735,0.837,0.96,1.369s0.338,1.11,0.338,1.737
			c0,0.898-0.219,1.682-0.654,2.349c-0.436,0.667-1.042,1.171-1.818,1.512l2.737,5.475c0.027,0.068,0.027,0.126,0,0.174
			s-0.074,0.071-0.143,0.071H315.101z M312.998,178.635c0.572,0,1.028-0.156,1.368-0.47c0.341-0.313,0.511-0.736,0.511-1.267
			c0-0.518-0.17-0.933-0.511-1.247c-0.34-0.313-0.796-0.47-1.368-0.47h-2.452c-0.081,0-0.122,0.041-0.122,0.123v3.208
			c0,0.082,0.041,0.123,0.122,0.123H312.998z"/>
		<path fill="#666666" d="M323.907,172.792c0.041-0.136,0.129-0.205,0.266-0.205h2.574c0.136,0,0.225,0.068,0.266,0.205
			l4.698,13.483c0.041,0.136-0.007,0.204-0.143,0.204h-2.656c-0.136,0-0.225-0.068-0.266-0.204l-0.797-2.431h-4.861l-0.776,2.431
			c-0.041,0.136-0.13,0.204-0.266,0.204h-2.677c-0.136,0-0.184-0.068-0.143-0.204L323.907,172.792z M327.033,181.291l-1.573-4.862
			h-0.062l-1.573,4.862H327.033z"/>
		<path fill="#666666" d="M332.752,183.293c-0.082-0.218-0.146-0.439-0.194-0.664c-0.048-0.225-0.085-0.477-0.112-0.756
			c-0.027-0.279-0.048-0.605-0.062-0.98c-0.014-0.375-0.021-0.827-0.021-1.358s0.007-0.984,0.021-1.359
			c0.014-0.374,0.034-0.701,0.062-0.98c0.027-0.279,0.064-0.527,0.112-0.746c0.048-0.218,0.112-0.442,0.194-0.674
			c0.367-1.144,0.977-1.999,1.828-2.563c0.851-0.565,1.89-0.848,3.115-0.848c1.186,0,2.189,0.269,3.014,0.807
			c0.823,0.538,1.433,1.297,1.828,2.278c0.068,0.123,0.034,0.204-0.102,0.245l-2.228,1.001c-0.122,0.068-0.218,0.034-0.286-0.102
			c-0.19-0.45-0.459-0.824-0.807-1.124c-0.348-0.299-0.813-0.45-1.399-0.45c-0.545,0-0.99,0.136-1.338,0.409
			s-0.596,0.647-0.746,1.124c-0.041,0.123-0.074,0.255-0.102,0.398s-0.052,0.324-0.071,0.542c-0.021,0.218-0.034,0.49-0.041,0.817
			c-0.008,0.327-0.011,0.736-0.011,1.226s0.003,0.899,0.011,1.226c0.007,0.327,0.021,0.6,0.041,0.817
			c0.02,0.218,0.044,0.398,0.071,0.541c0.027,0.143,0.061,0.276,0.102,0.398c0.15,0.477,0.398,0.852,0.746,1.124
			c0.348,0.273,0.793,0.409,1.338,0.409c0.586,0,1.052-0.149,1.399-0.449c0.348-0.299,0.616-0.674,0.807-1.124
			c0.068-0.136,0.164-0.17,0.286-0.103l2.228,1.001c0.136,0.041,0.17,0.123,0.102,0.246c-0.396,0.98-1.005,1.74-1.828,2.278
			c-0.824,0.538-1.828,0.807-3.014,0.807c-1.226,0-2.265-0.282-3.115-0.848C333.729,185.292,333.12,184.437,332.752,183.293z"/>
		<path fill="#666666" d="M344.479,172.792c0-0.136,0.067-0.205,0.204-0.205h2.595c0.136,0,0.204,0.068,0.204,0.205v6.006
			l4.617-6.027c0.081-0.123,0.197-0.184,0.347-0.184h2.963c0.067,0,0.112,0.028,0.133,0.082c0.021,0.055,0.003,0.116-0.052,0.184
			l-4.208,5.271l4.597,8.11c0.095,0.164,0.054,0.245-0.123,0.245h-3.003c-0.136,0-0.238-0.062-0.307-0.184l-3.146-5.842
			l-1.818,2.288v3.535c0,0.136-0.068,0.204-0.204,0.204h-2.595c-0.137,0-0.204-0.068-0.204-0.204V172.792z"/>
		<path fill="#666666" d="M357.656,172.792c0-0.136,0.067-0.205,0.204-0.205h2.595c0.136,0,0.204,0.068,0.204,0.205v13.483
			c0,0.136-0.068,0.204-0.204,0.204h-2.595c-0.137,0-0.204-0.068-0.204-0.204V172.792z"/>
		<path fill="#666666" d="M363.314,172.792c0-0.136,0.067-0.205,0.204-0.205h2.451c0.15,0,0.266,0.068,0.348,0.205l4.903,8.744
			h0.102v-8.744c0-0.136,0.068-0.205,0.204-0.205h2.309c0.137,0,0.204,0.068,0.204,0.205v13.483c0,0.136-0.067,0.204-0.204,0.204
			h-2.431c-0.15,0-0.266-0.068-0.348-0.204l-4.923-8.724h-0.103v8.724c0,0.136-0.068,0.204-0.204,0.204h-2.309
			c-0.137,0-0.204-0.068-0.204-0.204V172.792z"/>
		<path fill="#666666" d="M376.716,183.334c-0.082-0.245-0.146-0.483-0.194-0.715c-0.048-0.231-0.085-0.49-0.112-0.776
			c-0.027-0.286-0.048-0.613-0.062-0.981s-0.021-0.81-0.021-1.328s0.007-0.96,0.021-1.328s0.034-0.694,0.062-0.98
			s0.064-0.544,0.112-0.776c0.048-0.231,0.112-0.47,0.194-0.715c0.354-1.13,0.983-1.975,1.89-2.533
			c0.905-0.559,1.978-0.838,3.218-0.838c0.653,0,1.246,0.075,1.777,0.225c0.53,0.15,1.004,0.358,1.419,0.624
			c0.416,0.265,0.77,0.579,1.063,0.939c0.293,0.361,0.521,0.753,0.685,1.175c0.068,0.136,0.041,0.238-0.082,0.307l-2.186,0.919
			c-0.15,0.041-0.245,0.007-0.286-0.102c-0.272-0.477-0.596-0.834-0.971-1.072c-0.374-0.238-0.848-0.358-1.419-0.358
			c-0.6,0-1.083,0.14-1.451,0.419c-0.367,0.279-0.626,0.657-0.776,1.134c-0.041,0.123-0.074,0.262-0.102,0.419
			s-0.052,0.347-0.071,0.572c-0.021,0.225-0.034,0.498-0.041,0.817c-0.008,0.32-0.011,0.705-0.011,1.154
			c0,0.449,0.003,0.837,0.011,1.165c0.007,0.327,0.021,0.603,0.041,0.827c0.02,0.225,0.044,0.416,0.071,0.572
			s0.061,0.296,0.102,0.418c0.15,0.477,0.412,0.852,0.787,1.124c0.374,0.273,0.868,0.409,1.48,0.409c0.518,0,0.981-0.123,1.39-0.368
			s0.688-0.599,0.838-1.063c0.054-0.177,0.095-0.374,0.122-0.592c0.027-0.218,0.041-0.477,0.041-0.776
			c0-0.082-0.041-0.123-0.123-0.123h-1.879c-0.137,0-0.204-0.068-0.204-0.204v-1.961c0-0.136,0.067-0.204,0.204-0.204h4.78
			c0.136,0,0.204,0.068,0.204,0.204v1.144c0,0.613-0.027,1.192-0.081,1.737c-0.055,0.544-0.144,1.008-0.266,1.389
			c-0.354,1.117-0.978,1.975-1.87,2.574c-0.892,0.6-1.958,0.899-3.196,0.899c-1.24,0-2.313-0.279-3.218-0.837
			C377.7,185.309,377.07,184.464,376.716,183.334z"/>
	</g>
</g>
<g>
	<g>
		<path fill="#666666" d="M500.084,123.762c0-0.136,0.067-0.205,0.204-0.205h5.169c1.226,0,2.247,0.259,3.064,0.776
			c0.816,0.518,1.396,1.301,1.736,2.35c0.054,0.191,0.105,0.392,0.153,0.603c0.047,0.211,0.088,0.459,0.122,0.746
			s0.058,0.627,0.071,1.021c0.014,0.396,0.021,0.878,0.021,1.451c0,0.572-0.007,1.056-0.021,1.45
			c-0.014,0.396-0.037,0.736-0.071,1.021c-0.034,0.286-0.075,0.535-0.122,0.746c-0.048,0.211-0.1,0.412-0.153,0.603
			c-0.341,1.049-0.92,1.832-1.736,2.349c-0.817,0.518-1.839,0.776-3.064,0.776h-5.169c-0.137,0-0.204-0.068-0.204-0.204V123.762z
			 M503.087,134.651c0,0.082,0.041,0.123,0.122,0.123h1.573c0.695,0,1.253-0.112,1.676-0.337c0.422-0.225,0.722-0.623,0.898-1.195
			c0.041-0.095,0.075-0.208,0.103-0.337c0.026-0.129,0.051-0.296,0.071-0.5c0.021-0.205,0.034-0.46,0.041-0.766
			c0.007-0.307,0.01-0.685,0.01-1.134c0-0.45-0.003-0.824-0.01-1.124c-0.007-0.3-0.021-0.552-0.041-0.756
			c-0.021-0.205-0.045-0.371-0.071-0.5c-0.027-0.129-0.062-0.249-0.103-0.358c-0.177-0.572-0.477-0.97-0.898-1.195
			c-0.423-0.225-0.98-0.337-1.676-0.337h-1.573c-0.081,0-0.122,0.041-0.122,0.123V134.651z"/>
		<path fill="#666666" d="M515.488,137.45c-0.136,0-0.204-0.068-0.204-0.204v-5.332l-4.106-8.151
			c-0.055-0.136-0.007-0.205,0.144-0.205h2.655c0.15,0,0.252,0.068,0.307,0.205l2.513,5.066h0.062l2.513-5.066
			c0.055-0.136,0.156-0.205,0.307-0.205h2.574c0.067,0,0.115,0.021,0.143,0.062s0.027,0.089,0,0.143l-4.106,8.151v5.332
			c0,0.136-0.068,0.204-0.204,0.204H515.488z"/>
		<path fill="#666666" d="M523.925,123.762c0-0.136,0.067-0.205,0.204-0.205h2.451c0.15,0,0.266,0.068,0.348,0.205l4.903,8.744
			h0.102v-8.744c0-0.136,0.068-0.205,0.204-0.205h2.309c0.137,0,0.204,0.068,0.204,0.205v13.483c0,0.136-0.067,0.204-0.204,0.204
			h-2.431c-0.15,0-0.266-0.068-0.348-0.204l-4.923-8.724h-0.103v8.724c0,0.136-0.068,0.204-0.204,0.204h-2.309
			c-0.137,0-0.204-0.068-0.204-0.204V123.762z"/>
		<path fill="#666666" d="M541.044,123.762c0.041-0.136,0.129-0.205,0.266-0.205h2.574c0.136,0,0.225,0.068,0.266,0.205
			l4.698,13.483c0.041,0.136-0.007,0.204-0.143,0.204h-2.656c-0.136,0-0.225-0.068-0.266-0.204l-0.797-2.431h-4.861l-0.776,2.431
			c-0.041,0.136-0.13,0.204-0.266,0.204h-2.677c-0.136,0-0.184-0.068-0.143-0.204L541.044,123.762z M544.17,132.261l-1.573-4.862
			h-0.062l-1.573,4.862H544.17z"/>
		<path fill="#666666" d="M550.462,123.762c0-0.136,0.067-0.205,0.204-0.205h2.431c0.164,0,0.272,0.068,0.327,0.205l3.514,7.926
			h0.082l3.452-7.926c0.055-0.136,0.164-0.205,0.327-0.205h2.391c0.136,0,0.204,0.068,0.204,0.205v13.483
			c0,0.136-0.068,0.204-0.204,0.204h-2.309c-0.137,0-0.204-0.068-0.204-0.204v-7.825h-0.082l-2.574,5.863
			c-0.082,0.177-0.211,0.266-0.388,0.266h-1.41c-0.177,0-0.307-0.088-0.388-0.266l-2.574-5.863h-0.082v7.825
			c0,0.136-0.068,0.204-0.204,0.204h-2.309c-0.137,0-0.204-0.068-0.204-0.204V123.762z"/>
		<path fill="#666666" d="M566.049,123.762c0-0.136,0.067-0.205,0.204-0.205h2.595c0.136,0,0.204,0.068,0.204,0.205v13.483
			c0,0.136-0.068,0.204-0.204,0.204h-2.595c-0.137,0-0.204-0.068-0.204-0.204V123.762z"/>
		<path fill="#666666" d="M571.729,134.263c-0.082-0.218-0.146-0.439-0.194-0.664c-0.048-0.225-0.085-0.477-0.112-0.756
			c-0.027-0.279-0.048-0.605-0.062-0.98c-0.014-0.375-0.021-0.827-0.021-1.358s0.007-0.984,0.021-1.359
			c0.014-0.374,0.034-0.701,0.062-0.98c0.027-0.279,0.064-0.527,0.112-0.746c0.048-0.218,0.112-0.442,0.194-0.674
			c0.367-1.144,0.977-1.999,1.828-2.563c0.851-0.565,1.89-0.848,3.115-0.848c1.186,0,2.189,0.269,3.014,0.807
			c0.823,0.538,1.433,1.297,1.828,2.278c0.068,0.123,0.034,0.204-0.102,0.245l-2.228,1.001c-0.122,0.068-0.218,0.034-0.286-0.102
			c-0.19-0.45-0.459-0.824-0.807-1.124c-0.348-0.299-0.813-0.45-1.399-0.45c-0.545,0-0.99,0.136-1.338,0.409
			s-0.596,0.647-0.746,1.124c-0.041,0.123-0.074,0.255-0.102,0.398s-0.052,0.324-0.071,0.542c-0.021,0.218-0.034,0.49-0.041,0.817
			c-0.008,0.327-0.011,0.736-0.011,1.226s0.003,0.899,0.011,1.226c0.007,0.327,0.021,0.6,0.041,0.817
			c0.02,0.218,0.044,0.398,0.071,0.541c0.027,0.143,0.061,0.276,0.102,0.398c0.15,0.477,0.398,0.852,0.746,1.124
			c0.348,0.273,0.793,0.409,1.338,0.409c0.586,0,1.052-0.149,1.399-0.449c0.348-0.299,0.616-0.674,0.807-1.124
			c0.068-0.136,0.164-0.17,0.286-0.103l2.228,1.001c0.136,0.041,0.17,0.123,0.102,0.246c-0.396,0.98-1.005,1.74-1.828,2.278
			c-0.824,0.538-1.828,0.807-3.014,0.807c-1.226,0-2.265-0.282-3.115-0.848C572.706,136.262,572.096,135.407,571.729,134.263z"/>
		<path fill="#666666" d="M506.59,161.965c-0.149,0-0.252-0.068-0.306-0.204l-2.391-5.087h-1.859c-0.081,0-0.122,0.041-0.122,0.123
			v4.964c0,0.136-0.068,0.204-0.204,0.204h-2.595c-0.137,0-0.204-0.068-0.204-0.204v-13.483c0-0.136,0.067-0.205,0.204-0.205h5.536
			c0.708,0,1.352,0.106,1.931,0.317c0.579,0.211,1.076,0.507,1.491,0.889s0.735,0.837,0.96,1.369s0.338,1.11,0.338,1.737
			c0,0.898-0.219,1.682-0.654,2.349c-0.436,0.667-1.042,1.171-1.818,1.512l2.737,5.475c0.027,0.068,0.027,0.126,0,0.174
			s-0.074,0.071-0.143,0.071H506.59z M504.487,154.12c0.572,0,1.028-0.156,1.368-0.47c0.341-0.313,0.511-0.736,0.511-1.267
			c0-0.518-0.17-0.933-0.511-1.247c-0.34-0.313-0.796-0.47-1.368-0.47h-2.452c-0.081,0-0.122,0.041-0.122,0.123v3.208
			c0,0.082,0.041,0.123,0.122,0.123H504.487z"/>
		<path fill="#666666" d="M511.658,148.277c0-0.136,0.067-0.205,0.204-0.205h8.907c0.136,0,0.204,0.068,0.204,0.205v2.186
			c0,0.136-0.068,0.204-0.204,0.204h-5.986c-0.081,0-0.122,0.041-0.122,0.123v2.758c0,0.082,0.041,0.123,0.122,0.123h4.985
			c0.136,0,0.204,0.068,0.204,0.205v2.166c0,0.136-0.068,0.204-0.204,0.204h-4.985c-0.081,0-0.122,0.041-0.122,0.123v2.88
			c0,0.082,0.041,0.123,0.122,0.123h5.986c0.136,0,0.204,0.068,0.204,0.205v2.186c0,0.136-0.068,0.204-0.204,0.204h-8.907
			c-0.137,0-0.204-0.068-0.204-0.204V148.277z"/>
		<path fill="#666666" d="M523.404,161.965c-0.137,0-0.204-0.068-0.204-0.204v-13.483c0-0.136,0.067-0.205,0.204-0.205h5.394
			c0.749,0,1.423,0.109,2.022,0.327c0.599,0.218,1.109,0.524,1.532,0.919c0.422,0.395,0.742,0.865,0.96,1.41
			c0.218,0.544,0.327,1.151,0.327,1.818c0,0.654-0.112,1.253-0.338,1.798c-0.225,0.545-0.545,1.015-0.96,1.41
			s-0.923,0.702-1.521,0.919c-0.6,0.218-1.273,0.327-2.022,0.327h-2.473c-0.081,0-0.122,0.041-0.122,0.123v4.638
			c0,0.136-0.068,0.204-0.204,0.204H523.404z M528.613,154.406c0.641,0,1.138-0.167,1.492-0.5c0.354-0.334,0.53-0.787,0.53-1.359
			c0-0.572-0.177-1.028-0.53-1.369c-0.354-0.34-0.852-0.511-1.492-0.511h-2.288c-0.081,0-0.122,0.041-0.122,0.123v3.494
			c0,0.082,0.041,0.123,0.122,0.123H528.613z"/>
		<path fill="#666666" d="M540.646,162.189c-1.213,0-2.271-0.279-3.177-0.837c-0.906-0.559-1.536-1.403-1.89-2.533
			c-0.082-0.245-0.146-0.483-0.194-0.715c-0.048-0.231-0.085-0.49-0.112-0.776c-0.027-0.286-0.048-0.613-0.062-0.981
			s-0.021-0.81-0.021-1.328s0.007-0.96,0.021-1.328s0.034-0.694,0.062-0.98s0.064-0.544,0.112-0.776
			c0.048-0.231,0.112-0.47,0.194-0.715c0.354-1.117,0.983-1.958,1.89-2.523c0.905-0.565,1.964-0.848,3.177-0.848
			c1.212,0,2.271,0.283,3.177,0.848c0.905,0.565,1.535,1.406,1.89,2.523c0.081,0.245,0.146,0.483,0.193,0.715
			c0.048,0.232,0.085,0.49,0.113,0.776c0.026,0.286,0.047,0.613,0.061,0.98s0.021,0.811,0.021,1.328s-0.007,0.96-0.021,1.328
			s-0.034,0.695-0.061,0.981c-0.028,0.286-0.065,0.544-0.113,0.776c-0.048,0.232-0.112,0.47-0.193,0.715
			c-0.354,1.13-0.984,1.975-1.89,2.533C542.917,161.911,541.858,162.189,540.646,162.189z M540.646,159.534
			c0.571,0,1.042-0.136,1.409-0.409c0.368-0.272,0.626-0.646,0.776-1.124c0.041-0.123,0.075-0.262,0.103-0.418
			c0.026-0.157,0.051-0.348,0.071-0.572s0.034-0.5,0.041-0.827c0.007-0.327,0.01-0.715,0.01-1.165c0-0.45-0.003-0.838-0.01-1.165
			c-0.007-0.327-0.021-0.603-0.041-0.828c-0.021-0.225-0.045-0.415-0.071-0.572c-0.027-0.156-0.062-0.296-0.103-0.419
			c-0.15-0.477-0.408-0.851-0.776-1.124c-0.367-0.272-0.838-0.409-1.409-0.409c-0.572,0-1.042,0.136-1.41,0.409
			c-0.367,0.272-0.626,0.647-0.776,1.124c-0.041,0.123-0.074,0.263-0.102,0.419c-0.027,0.157-0.052,0.347-0.071,0.572
			c-0.021,0.225-0.034,0.5-0.041,0.828c-0.008,0.327-0.011,0.715-0.011,1.165c0,0.449,0.003,0.837,0.011,1.165
			c0.007,0.327,0.021,0.603,0.041,0.827c0.02,0.225,0.044,0.416,0.071,0.572s0.061,0.296,0.102,0.418
			c0.15,0.477,0.409,0.852,0.776,1.124C539.604,159.398,540.074,159.534,540.646,159.534z"/>
		<path fill="#666666" d="M556.069,161.965c-0.149,0-0.252-0.068-0.306-0.204l-2.391-5.087h-1.859c-0.081,0-0.122,0.041-0.122,0.123
			v4.964c0,0.136-0.068,0.204-0.204,0.204h-2.595c-0.137,0-0.204-0.068-0.204-0.204v-13.483c0-0.136,0.067-0.205,0.204-0.205h5.536
			c0.708,0,1.352,0.106,1.931,0.317c0.579,0.211,1.076,0.507,1.491,0.889s0.735,0.837,0.96,1.369s0.338,1.11,0.338,1.737
			c0,0.898-0.219,1.682-0.654,2.349c-0.436,0.667-1.042,1.171-1.818,1.512l2.737,5.475c0.027,0.068,0.027,0.126,0,0.174
			s-0.074,0.071-0.143,0.071H556.069z M553.965,154.12c0.572,0,1.028-0.156,1.368-0.47c0.341-0.313,0.511-0.736,0.511-1.267
			c0-0.518-0.17-0.933-0.511-1.247c-0.34-0.313-0.796-0.47-1.368-0.47h-2.452c-0.081,0-0.122,0.041-0.122,0.123v3.208
			c0,0.082,0.041,0.123,0.122,0.123H553.965z"/>
		<path fill="#666666" d="M564.16,161.965c-0.137,0-0.205-0.068-0.205-0.204v-10.889c0-0.082-0.04-0.123-0.122-0.123h-3.514
			c-0.137,0-0.204-0.068-0.204-0.204v-2.268c0-0.136,0.067-0.205,0.204-0.205h10.275c0.137,0,0.205,0.068,0.205,0.205v2.268
			c0,0.136-0.068,0.204-0.205,0.204h-3.514c-0.082,0-0.122,0.041-0.122,0.123v10.889c0,0.136-0.068,0.204-0.205,0.204H564.16z"/>
		<path fill="#666666" d="M577.152,162.189c-0.545,0-1.079-0.051-1.604-0.153c-0.524-0.102-1.019-0.238-1.481-0.408
			s-0.889-0.371-1.276-0.603c-0.388-0.231-0.719-0.477-0.991-0.735c-0.108-0.109-0.115-0.225-0.02-0.347l1.552-1.777
			c0.082-0.109,0.185-0.116,0.307-0.021c0.463,0.368,1.001,0.698,1.614,0.991c0.612,0.293,1.287,0.439,2.022,0.439
			s1.297-0.153,1.686-0.46c0.388-0.306,0.582-0.705,0.582-1.195c0-0.409-0.15-0.742-0.449-1.001c-0.3-0.259-0.865-0.442-1.696-0.552
			l-0.735-0.102c-1.416-0.19-2.502-0.623-3.258-1.297s-1.134-1.631-1.134-2.87c0-0.64,0.115-1.222,0.347-1.747
			s0.562-0.971,0.991-1.338c0.429-0.368,0.946-0.654,1.553-0.858c0.605-0.205,1.283-0.307,2.032-0.307
			c0.926,0,1.798,0.13,2.615,0.388c0.817,0.259,1.519,0.613,2.104,1.063c0.122,0.082,0.136,0.184,0.04,0.306l-1.246,1.859
			c-0.081,0.109-0.177,0.129-0.286,0.061c-0.53-0.354-1.059-0.62-1.583-0.796c-0.524-0.177-1.072-0.266-1.645-0.266
			c-0.612,0-1.076,0.143-1.389,0.429c-0.313,0.286-0.471,0.647-0.471,1.083c0,0.395,0.16,0.722,0.48,0.98s0.882,0.443,1.686,0.552
			l0.735,0.102c1.443,0.191,2.533,0.623,3.269,1.297c0.735,0.674,1.104,1.645,1.104,2.911c0,0.626-0.116,1.208-0.348,1.747
			s-0.575,1.001-1.031,1.389c-0.457,0.388-1.025,0.691-1.706,0.909C578.84,162.081,578.051,162.189,577.152,162.189z"/>
		<path fill="#666666" d="M483.476,186.705c-1.213,0-2.271-0.279-3.177-0.837c-0.906-0.559-1.536-1.403-1.89-2.533
			c-0.082-0.245-0.146-0.483-0.194-0.715c-0.048-0.231-0.085-0.49-0.112-0.776c-0.027-0.286-0.048-0.613-0.062-0.981
			s-0.021-0.81-0.021-1.328s0.007-0.96,0.021-1.328s0.034-0.694,0.062-0.98s0.064-0.544,0.112-0.776
			c0.048-0.231,0.112-0.47,0.194-0.715c0.354-1.117,0.983-1.958,1.89-2.523c0.905-0.565,1.964-0.848,3.177-0.848
			c1.212,0,2.271,0.283,3.177,0.848c0.905,0.565,1.535,1.406,1.89,2.523c0.081,0.245,0.146,0.483,0.193,0.715
			c0.048,0.232,0.085,0.49,0.113,0.776c0.026,0.286,0.047,0.613,0.061,0.98s0.021,0.811,0.021,1.328s-0.007,0.96-0.021,1.328
			s-0.034,0.695-0.061,0.981c-0.028,0.286-0.065,0.544-0.113,0.776c-0.048,0.232-0.112,0.47-0.193,0.715
			c-0.354,1.13-0.984,1.975-1.89,2.533C485.747,186.426,484.688,186.705,483.476,186.705z M483.476,184.049
			c0.571,0,1.042-0.136,1.409-0.409c0.368-0.272,0.626-0.646,0.776-1.124c0.041-0.123,0.075-0.262,0.103-0.418
			c0.026-0.157,0.051-0.348,0.071-0.572s0.034-0.5,0.041-0.827c0.007-0.327,0.01-0.715,0.01-1.165c0-0.45-0.003-0.838-0.01-1.165
			c-0.007-0.327-0.021-0.603-0.041-0.828c-0.021-0.225-0.045-0.415-0.071-0.572c-0.027-0.156-0.062-0.296-0.103-0.419
			c-0.15-0.477-0.408-0.851-0.776-1.124c-0.367-0.272-0.838-0.409-1.409-0.409c-0.572,0-1.042,0.136-1.41,0.409
			c-0.367,0.272-0.626,0.647-0.776,1.124c-0.041,0.123-0.074,0.263-0.102,0.419c-0.027,0.157-0.052,0.347-0.071,0.572
			c-0.021,0.225-0.034,0.5-0.041,0.828c-0.008,0.327-0.011,0.715-0.011,1.165c0,0.449,0.003,0.837,0.011,1.165
			c0.007,0.327,0.021,0.603,0.041,0.827c0.02,0.225,0.044,0.416,0.071,0.572s0.061,0.296,0.102,0.418
			c0.15,0.477,0.409,0.852,0.776,1.124C482.434,183.913,482.904,184.049,483.476,184.049z"/>
		<path fill="#666666" d="M491.218,172.792c0-0.136,0.067-0.205,0.204-0.205h2.451c0.15,0,0.266,0.068,0.348,0.205l4.903,8.744
			h0.102v-8.744c0-0.136,0.068-0.205,0.204-0.205h2.309c0.137,0,0.204,0.068,0.204,0.205v13.483c0,0.136-0.067,0.204-0.204,0.204
			h-2.431c-0.15,0-0.266-0.068-0.348-0.204l-4.923-8.724h-0.103v8.724c0,0.136-0.068,0.204-0.204,0.204h-2.309
			c-0.137,0-0.204-0.068-0.204-0.204V172.792z"/>
		<path fill="#666666" d="M509.441,183.293c-0.082-0.218-0.146-0.439-0.194-0.664c-0.048-0.225-0.085-0.477-0.112-0.756
			c-0.027-0.279-0.048-0.605-0.062-0.98c-0.014-0.375-0.021-0.827-0.021-1.358s0.007-0.984,0.021-1.359
			c0.014-0.374,0.034-0.701,0.062-0.98c0.027-0.279,0.064-0.527,0.112-0.746c0.048-0.218,0.112-0.442,0.194-0.674
			c0.367-1.144,0.977-1.999,1.828-2.563c0.851-0.565,1.89-0.848,3.115-0.848c1.186,0,2.189,0.269,3.014,0.807
			c0.823,0.538,1.433,1.297,1.828,2.278c0.068,0.123,0.034,0.204-0.102,0.245l-2.228,1.001c-0.122,0.068-0.218,0.034-0.286-0.102
			c-0.19-0.45-0.459-0.824-0.807-1.124c-0.348-0.299-0.813-0.45-1.399-0.45c-0.545,0-0.99,0.136-1.338,0.409
			s-0.596,0.647-0.746,1.124c-0.041,0.123-0.074,0.255-0.102,0.398s-0.052,0.324-0.071,0.542c-0.021,0.218-0.034,0.49-0.041,0.817
			c-0.008,0.327-0.011,0.736-0.011,1.226s0.003,0.899,0.011,1.226c0.007,0.327,0.021,0.6,0.041,0.817
			c0.02,0.218,0.044,0.398,0.071,0.541c0.027,0.143,0.061,0.276,0.102,0.398c0.15,0.477,0.398,0.852,0.746,1.124
			c0.348,0.273,0.793,0.409,1.338,0.409c0.586,0,1.052-0.149,1.399-0.449c0.348-0.299,0.616-0.674,0.807-1.124
			c0.068-0.136,0.164-0.17,0.286-0.103l2.228,1.001c0.136,0.041,0.17,0.123,0.102,0.246c-0.396,0.98-1.005,1.74-1.828,2.278
			c-0.824,0.538-1.828,0.807-3.014,0.807c-1.226,0-2.265-0.282-3.115-0.848C510.417,185.292,509.808,184.437,509.441,183.293z"/>
		<path fill="#666666" d="M526.438,186.705c-0.776,0-1.491-0.116-2.146-0.347c-0.653-0.231-1.215-0.572-1.685-1.021
			c-0.471-0.449-0.838-1.008-1.104-1.675c-0.266-0.667-0.398-1.43-0.398-2.288v-8.58c0-0.136,0.068-0.205,0.204-0.205h2.595
			c0.136,0,0.204,0.068,0.204,0.205v8.662c0,0.831,0.211,1.471,0.634,1.92c0.422,0.45,0.987,0.674,1.695,0.674
			c0.694,0,1.253-0.225,1.675-0.674c0.423-0.449,0.634-1.089,0.634-1.92v-8.662c0-0.136,0.068-0.205,0.204-0.205h2.595
			c0.136,0,0.204,0.068,0.204,0.205v8.58c0,0.858-0.133,1.621-0.398,2.288c-0.266,0.667-0.633,1.226-1.104,1.675
			c-0.47,0.449-1.028,0.79-1.675,1.021S527.214,186.705,526.438,186.705z"/>
		<path fill="#666666" d="M539.022,186.705c-0.545,0-1.079-0.051-1.604-0.153c-0.524-0.102-1.019-0.238-1.481-0.408
			s-0.889-0.371-1.276-0.603c-0.388-0.231-0.719-0.477-0.991-0.735c-0.108-0.109-0.115-0.225-0.02-0.347l1.552-1.777
			c0.082-0.109,0.185-0.116,0.307-0.021c0.463,0.368,1.001,0.698,1.614,0.991c0.612,0.293,1.287,0.439,2.022,0.439
			s1.297-0.153,1.686-0.46c0.388-0.306,0.582-0.705,0.582-1.195c0-0.409-0.15-0.742-0.449-1.001c-0.3-0.259-0.865-0.442-1.696-0.552
			l-0.735-0.102c-1.416-0.19-2.502-0.623-3.258-1.297s-1.134-1.631-1.134-2.87c0-0.64,0.115-1.222,0.347-1.747
			s0.562-0.971,0.991-1.338c0.429-0.368,0.946-0.654,1.553-0.858c0.605-0.205,1.283-0.307,2.032-0.307
			c0.926,0,1.798,0.13,2.615,0.388c0.817,0.259,1.519,0.613,2.104,1.063c0.122,0.082,0.136,0.184,0.04,0.306l-1.246,1.859
			c-0.081,0.109-0.177,0.129-0.286,0.061c-0.53-0.354-1.059-0.62-1.583-0.796c-0.524-0.177-1.072-0.266-1.645-0.266
			c-0.612,0-1.076,0.143-1.389,0.429c-0.313,0.286-0.471,0.647-0.471,1.083c0,0.395,0.16,0.722,0.48,0.98s0.882,0.443,1.686,0.552
			l0.735,0.102c1.443,0.191,2.533,0.623,3.269,1.297c0.735,0.674,1.104,1.645,1.104,2.911c0,0.626-0.116,1.208-0.348,1.747
			s-0.575,1.001-1.031,1.389c-0.457,0.388-1.025,0.691-1.706,0.909C540.71,186.596,539.921,186.705,539.022,186.705z"/>
		<path fill="#666666" d="M549.319,186.48c-0.137,0-0.205-0.068-0.205-0.204v-10.889c0-0.082-0.04-0.123-0.122-0.123h-3.514
			c-0.137,0-0.204-0.068-0.204-0.204v-2.268c0-0.136,0.067-0.205,0.204-0.205h10.275c0.137,0,0.205,0.068,0.205,0.205v2.268
			c0,0.136-0.068,0.204-0.205,0.204h-3.514c-0.082,0-0.122,0.041-0.122,0.123v10.889c0,0.136-0.068,0.204-0.205,0.204H549.319z"/>
		<path fill="#666666" d="M562.352,186.705c-1.213,0-2.271-0.279-3.177-0.837c-0.906-0.559-1.536-1.403-1.89-2.533
			c-0.082-0.245-0.146-0.483-0.194-0.715c-0.048-0.231-0.085-0.49-0.112-0.776c-0.027-0.286-0.048-0.613-0.062-0.981
			s-0.021-0.81-0.021-1.328s0.007-0.96,0.021-1.328s0.034-0.694,0.062-0.98s0.064-0.544,0.112-0.776
			c0.048-0.231,0.112-0.47,0.194-0.715c0.354-1.117,0.983-1.958,1.89-2.523c0.905-0.565,1.964-0.848,3.177-0.848
			c1.212,0,2.271,0.283,3.177,0.848c0.905,0.565,1.535,1.406,1.89,2.523c0.081,0.245,0.146,0.483,0.193,0.715
			c0.048,0.232,0.085,0.49,0.113,0.776c0.026,0.286,0.047,0.613,0.061,0.98s0.021,0.811,0.021,1.328s-0.007,0.96-0.021,1.328
			s-0.034,0.695-0.061,0.981c-0.028,0.286-0.065,0.544-0.113,0.776c-0.048,0.232-0.112,0.47-0.193,0.715
			c-0.354,1.13-0.984,1.975-1.89,2.533C564.623,186.426,563.564,186.705,562.352,186.705z M562.352,184.049
			c0.571,0,1.042-0.136,1.409-0.409c0.368-0.272,0.626-0.646,0.776-1.124c0.041-0.123,0.075-0.262,0.103-0.418
			c0.026-0.157,0.051-0.348,0.071-0.572s0.034-0.5,0.041-0.827c0.007-0.327,0.01-0.715,0.01-1.165c0-0.45-0.003-0.838-0.01-1.165
			c-0.007-0.327-0.021-0.603-0.041-0.828c-0.021-0.225-0.045-0.415-0.071-0.572c-0.027-0.156-0.062-0.296-0.103-0.419
			c-0.15-0.477-0.408-0.851-0.776-1.124c-0.367-0.272-0.838-0.409-1.409-0.409c-0.572,0-1.042,0.136-1.41,0.409
			c-0.367,0.272-0.626,0.647-0.776,1.124c-0.041,0.123-0.074,0.263-0.102,0.419c-0.027,0.157-0.052,0.347-0.071,0.572
			c-0.021,0.225-0.034,0.5-0.041,0.828c-0.008,0.327-0.011,0.715-0.011,1.165c0,0.449,0.003,0.837,0.011,1.165
			c0.007,0.327,0.021,0.603,0.041,0.827c0.02,0.225,0.044,0.416,0.071,0.572s0.061,0.296,0.102,0.418
			c0.15,0.477,0.409,0.852,0.776,1.124C561.31,183.913,561.78,184.049,562.352,184.049z"/>
		<path fill="#666666" d="M570.095,172.792c0-0.136,0.067-0.205,0.204-0.205h2.431c0.164,0,0.272,0.068,0.327,0.205l3.514,7.926
			h0.082l3.452-7.926c0.055-0.136,0.164-0.205,0.327-0.205h2.391c0.136,0,0.204,0.068,0.204,0.205v13.483
			c0,0.136-0.068,0.204-0.204,0.204h-2.309c-0.137,0-0.204-0.068-0.204-0.204v-7.825h-0.082l-2.574,5.863
			c-0.082,0.177-0.211,0.266-0.388,0.266h-1.41c-0.177,0-0.307-0.088-0.388-0.266l-2.574-5.863h-0.082v7.825
			c0,0.136-0.068,0.204-0.204,0.204h-2.309c-0.137,0-0.204-0.068-0.204-0.204V172.792z"/>
		<path fill="#666666" d="M585.682,172.792c0-0.136,0.067-0.205,0.204-0.205h8.907c0.136,0,0.204,0.068,0.204,0.205v2.186
			c0,0.136-0.068,0.204-0.204,0.204h-5.986c-0.081,0-0.122,0.041-0.122,0.123v2.758c0,0.082,0.041,0.123,0.122,0.123h4.985
			c0.136,0,0.204,0.068,0.204,0.205v2.166c0,0.136-0.068,0.204-0.204,0.204h-4.985c-0.081,0-0.122,0.041-0.122,0.123v2.88
			c0,0.082,0.041,0.123,0.122,0.123h5.986c0.136,0,0.204,0.068,0.204,0.205v2.186c0,0.136-0.068,0.204-0.204,0.204h-8.907
			c-0.137,0-0.204-0.068-0.204-0.204V172.792z"/>
		<path fill="#666666" d="M604.905,186.48c-0.149,0-0.252-0.068-0.306-0.204l-2.391-5.087h-1.859c-0.081,0-0.122,0.041-0.122,0.123
			v4.964c0,0.136-0.068,0.204-0.204,0.204h-2.595c-0.137,0-0.204-0.068-0.204-0.204v-13.483c0-0.136,0.067-0.205,0.204-0.205h5.536
			c0.708,0,1.352,0.106,1.931,0.317c0.579,0.211,1.076,0.507,1.491,0.889s0.735,0.837,0.96,1.369s0.338,1.11,0.338,1.737
			c0,0.898-0.219,1.682-0.654,2.349c-0.436,0.667-1.042,1.171-1.818,1.512l2.737,5.475c0.027,0.068,0.027,0.126,0,0.174
			s-0.074,0.071-0.143,0.071H604.905z M602.801,178.635c0.572,0,1.028-0.156,1.368-0.47c0.341-0.313,0.511-0.736,0.511-1.267
			c0-0.518-0.17-0.933-0.511-1.247c-0.34-0.313-0.796-0.47-1.368-0.47h-2.452c-0.081,0-0.122,0.041-0.122,0.123v3.208
			c0,0.082,0.041,0.123,0.122,0.123H602.801z"/>
	</g>
</g>
</svg>
