<?xml version="1.0" encoding="utf-8"?>
<!-- Generator: Adobe Illustrator 16.0.0, SVG Export Plug-In . SVG Version: 6.00 Build 0)  -->
<!DOCTYPE svg PUBLIC "-//W3C//DTD SVG 1.1//EN" "http://www.w3.org/Graphics/SVG/1.1/DTD/svg11.dtd">
<svg version="1.1" id="Capa_1" xmlns="http://www.w3.org/2000/svg" xmlns:xlink="http://www.w3.org/1999/xlink" x="0px" y="0px"
	 width="50px" height="50px" viewBox="231 231 50 50" enable-background="new 231 231 50 50" xml:space="preserve">
<path opacity="0.5" d="M256,231c-13.785,0-25,11.215-25,25s11.215,25,25,25c13.786,0,25-11.215,25-25S269.785,231,256,231z"/>
<path opacity="0.8" fill="#FFFFFF" d="M261.195,244.731c-0.641-0.641-1.68-0.641-2.318,0l-10.11,10.109
	c-0.308,0.308-0.48,0.725-0.48,1.159c0,0.435,0.173,0.852,0.48,1.159l10.11,10.109c0.319,0.32,0.739,0.48,1.158,0.48
	c0.42,0,0.841-0.159,1.159-0.48c0.641-0.64,0.641-1.678,0-2.317L252.245,256l8.949-8.95
	C261.835,246.41,261.835,245.372,261.195,244.731z"/>
</svg>
