<?xml version="1.0" encoding="utf-8"?>
<!-- Generator: Adobe Illustrator 16.0.0, SVG Export Plug-In . SVG Version: 6.00 Build 0)  -->
<!DOCTYPE svg PUBLIC "-//W3C//DTD SVG 1.1//EN" "http://www.w3.org/Graphics/SVG/1.1/DTD/svg11.dtd">
<svg version="1.1" id="Capa_1" xmlns="http://www.w3.org/2000/svg" xmlns:xlink="http://www.w3.org/1999/xlink" x="0px" y="0px"
	 width="50px" height="50px" viewBox="231 231 50 50" enable-background="new 231 231 50 50" xml:space="preserve">
<g>
	<path opacity="0.5" d="M231,256c0,13.785,11.215,25,25,25c13.785,0,25-11.215,25-25s-11.215-25-25-25
		C242.215,231,231,242.215,231,256z"/>
	<path opacity="0.8" fill="#FFFFFF" d="M250.806,247.049l8.949,8.95l-8.949,8.951c-0.641,0.64-0.641,1.678,0,2.317
		c0.318,0.321,0.739,0.48,1.159,0.48c0.419,0,0.839-0.16,1.158-0.48l10.109-10.109c0.309-0.307,0.48-0.724,0.48-1.159
		c0-0.435-0.172-0.852-0.48-1.159l-10.109-10.109c-0.639-0.641-1.678-0.641-2.318,0C250.165,245.372,250.165,246.41,250.806,247.049
		z"/>
</g>
</svg>
